EMG
version=1
nRows=13
nColumns=17
inDegrees=no
endheader
time	EMG01_right_gast_med	EMG02_right_glut_max	EMG03_left_gast_med	EMG04_left_glut_max	EMG05_right_glut_med	EMG06_right_bic_fem	EMG07_right_rect_fem	EMG08_right_vast_lat	EMG09_right_vast_med	EMG10_right_tens_fasc_lat	EMG11_left_glut_med	EMG12_left_bic_fem	EMG13_left_rect_fem	EMG14_left_vast_lat	EMG15_left_vast_med	EMG16_left_tens_fasc_lat
      0.63000000	   -136.26449585	    -82.03948212	     -0.19873023	    -87.91064453	     25.54317284	    -18.22546387	     -1.08931887	     -0.23001963	    -71.54380798	    -19.43902779	    -33.38291931	     -5.56992531	    -17.91320419	     13.51959991	     -8.98328114	    -32.22418213
      0.64000000	    135.44541931	    -77.44445801	     -6.52626324	    -33.02754593	    121.62797546	    -58.89723587	      1.95395303	      3.16900086	    -28.14271545	    -53.19733047	     22.65087891	     16.26670837	    -18.25357246	    -10.80492401	     16.08317757	    -17.54575920
      0.65000000	    -75.31517029	    -48.18494034	     -7.53075123	     -0.17544082	      6.79256821	    -11.45335770	      2.58518171	     11.18272877	     -4.77521563	    -43.93510056	     -1.41811049	     19.09033585	    -27.10598564	      0.69399762	    -13.04466343	    -59.74720383
      0.66000000	    -55.02580643	    -34.84787750	     -1.89507985	     21.31997299	   -144.00791931	     -5.29274464	      0.43586063	     -4.90375757	     32.23703003	    -44.15650940	     -0.37108606	    -24.68474197	      0.92183948	    -31.08831024	     29.55094337	     -9.72936726
      0.67000000	   -254.39823914	    -16.13285446	      3.49467397	     28.99653053	   -201.62403870	    -34.28557968	     -6.24329376	    -14.22014904	     39.47016144	    -41.48432159	      3.12375617	     -1.90547359	    -29.99187088	     17.71046066	     -9.83009434	      2.88304996
      0.68000000	    243.11532593	     -5.50426245	     -2.39696240	     35.77667999	   -149.24673462	     61.12691879	      7.10759401	    -28.70312691	     54.54106522	    -59.05424118	     14.52594376	    -28.71041489	    -18.00606918	     15.85984802	     56.30654144	    -10.34220695
      0.69000000	   -138.00909424	     11.10132027	     -2.62398314	     55.44880676	    102.04064941	    -26.08612251	     -4.72365713	     -9.10922623	     34.55933762	    -42.07800293	     -7.55447483	    -32.30245590	    -19.18972397	    -58.89914703	     95.65588379	    -48.25852966
      0.70000000	   -371.63525391	     18.20475197	     12.96446800	    122.84804535	    132.24113464	    -21.95836830	    -14.57003975	     -7.83968830	     -8.91275120	    -32.35203171	    -12.80106163	     -2.99400568	     35.46822357	   -100.90979004	     -3.00396967	   -114.75111389
      0.71000000	     -1.44443893	     38.05229568	     13.16402340	    211.23588562	    148.25505066	      2.24623561	     -5.56413507	    -28.12326050	     12.89362335	    -20.32688904	     19.58660698	    -11.12960148	    -44.95516205	      9.63211060	     59.52363205	   -155.56294250
      0.72000000	    279.07101440	     52.23429489	     -2.06589317	     73.86856079	    114.72315216	     -8.38309860	    -55.76642990	    -18.05014801	     -9.55720901	    -51.36776733	      9.96065331	    -31.00255966	     13.48911095	    -58.42431259	    -14.60449982	   -166.26800537
      0.73000000	    101.24919128	     64.88111115	      5.18130779	   -109.99829865	     82.67408752	     -0.71573555	     24.58306313	    -14.06933498	    -52.11587524	    -59.49942780	     -1.33284473	     32.55951309	   -129.26341248	     21.64654732	     12.62292099	   -223.47210693
      0.74000000	      7.91058540	     53.81628036	      1.84297550	   -106.62445831	     76.26229858	      1.53185773	     -1.96575224	    -13.24913025	    -70.22064972	    -82.05578613	    -65.56499481	   -194.14750671	    -22.41049767	     39.96513367	    173.12280273	   -105.19535065
      0.75000000	     46.73693466	     16.75845909	    -53.22082901	    -89.30548096	     76.24918365	     -8.60718155	      4.29925776	    -12.65195084	    -54.91901016	     -5.90583706	     -0.19598103	    -37.59287262	    -50.23077393	     -4.08898067	     37.95325851	     47.99135590
